# xmcd
# Track frame offsets:
# 150
# 10687
# 27830
# 42660
# 54842
# 71385
# 86370
# 99320
# 116447
# 130747
# 147747
# 158535
# 176840
# 190967
# 210747
# 223785
# 233302
# 245957
# 273860
# 286767
#
# Disc length: 3966 seconds
# Revision: 2
# Processed by: cddbd v1.4PL0 Copyright (c) Steve Scherf et al.
# Submitted via: VisiTrax 2.9.5.180 - For more info visit www.synapsa.com
#
DISCID=140f7c14
DTITLE=Various Artist - Country Complete  Volume 5
DYEAR=1997
DGENRE=Country
TTITLE0=Slim Dusty - Country Revival
TTITLE1=James Blundell - This Road
TTITLE2=Olivia Newton-John - Banks Of The Ohio
TTITLE3=Reg Lindsay - Armstrong
TTITLE4=Clint Beattie - I Believe (The Wheel Does Turn)
TTITLE5=Doug Ashdown - Winter In America
TTITLE6=Col Joye - Heaven Is My Womans Love
TTITLE7=Ross Ryan - I Am Pegusus
TTITLE8=Mike McClellan - Song And Dance Man
TTITLE9=Johnny Ashcroft - Little Boy Lost
TTITLE10=Bill And Boyd - Put Another Log On The Fire
TTITLE11=James Blundell and James Reyne - Way Out West
TTITLE12=Slim Dusty - Lights On The Hill
TTITLE13=Brian Cadd - Lets Go
TTITLE14=John Williamson - I'm In The Mood
TTITLE15=Frank Ifield - I Remember You
TTITLE16=Bobby and Laurie - Caroll County Accident
TTITLE17=The Bushwakers - And The Band Played Waltzing Matilda
TTITLE18=John Williamson - Old Man Emu
TTITLE19=Chad Morgan - The Sheik Of Scrubby Creek
EXTD=EMI
EXTT0=
EXTT1=
EXTT2=
EXTT3=
EXTT4=
EXTT5=
EXTT6=
EXTT7=
EXTT8=
EXTT9=
EXTT10=
EXTT11=
EXTT12=
EXTT13=
EXTT14=
EXTT15=
EXTT16=
EXTT17=
EXTT18=
EXTT19=
PLAYORDER=
